<svg width="16" height="16" viewBox="0 0 16 16" fill="none" xmlns="http://www.w3.org/2000/svg">
<g clip-path="url(#clip0_1_6)">
<path d="M13.549 2H2.391C1.75687 2 1.14871 2.23705 0.700308 2.65901C0.251908 3.08097 0 3.65326 0 4.25V11.75C0 12.3467 0.251908 12.919 0.700308 13.341C1.14871 13.7629 1.75687 14 2.391 14H13.549C14.1831 14 14.7913 13.7629 15.2397 13.341C15.6881 12.919 15.94 12.3467 15.94 11.75V4.25C15.94 3.65326 15.6881 3.08097 15.2397 2.65901C14.7913 2.23705 14.1831 2 13.549 2ZM14.346 11.75C14.346 11.9489 14.262 12.1397 14.1126 12.2803C13.9631 12.421 13.7604 12.5 13.549 12.5H2.391C2.17962 12.5 1.9769 12.421 1.82744 12.2803C1.67797 12.1397 1.594 11.9489 1.594 11.75V4.25C1.594 4.05109 1.67797 3.86032 1.82744 3.71967C1.9769 3.57902 2.17962 3.5 2.391 3.5H13.549C13.7604 3.5 13.9631 3.57902 14.1126 3.71967C14.262 3.86032 14.346 4.05109 14.346 4.25V11.75Z" fill="black"/>
<rect x="5.5" y="9" width="5" height="2" fill="black"/>
</g>
<defs>
<clipPath id="clip0_1_6">
<rect width="15.9375" height="15.9453" fill="white"/>
</clipPath>
</defs>
</svg>
